<svg width="145" height="72" viewBox="0 0 145 72" fill="none" xmlns="http://www.w3.org/2000/svg">
<path d="M47.4565 48.8671V13.9551C48.7385 14.5129 49.8725 15.1742 50.9285 16.0765V54.4142C50.9285 54.6089 50.8426 54.8278 50.6975 54.9991C50.5474 55.1765 50.3957 55.2349 50.3105 55.2349C50.1872 55.2349 50.1546 55.2332 50.1276 55.2278C50.1146 55.2253 50.0855 55.2188 50.0118 55.1758C46.781 53.1337 42.8823 52.3293 39.1304 52.3293C37.164 52.3293 34.7914 52.7715 32.5357 53.4921C30.4341 54.1635 28.3979 55.0882 26.8615 56.1549C23.5075 53.3354 18.8246 52.3293 14.5341 52.3293C11.2341 52.3293 6.84666 53.5183 3.76214 55.2459C3.62789 55.2655 3.52406 55.3065 3.46077 55.3316L3.45029 55.3357C3.37005 55.3673 3.36162 55.3671 3.35519 55.367L3.35397 55.367C3.26882 55.367 3.11712 55.3086 2.96697 55.1312C2.82192 54.9599 2.73596 54.741 2.73596 54.5463V16.0749C5.84365 13.3946 10.3115 12.3866 14.5341 12.3866C18.7567 12.3866 23.2245 13.3946 26.3322 16.0749V51.5086V52.5036L27.1306 51.9098C28.5815 50.8306 30.6505 49.8613 32.84 49.1618C35.0284 48.4627 37.2955 48.0464 39.1304 48.0464C41.7662 48.0464 44.3879 48.4358 46.7805 49.3351L47.4565 49.5892V48.8671ZM22.2155 49.108L22.8602 49.3029V48.6294V18.8336V18.5299L22.5906 18.3899C20.4686 17.288 17.6351 16.6695 14.5341 16.6695C11.4331 16.6695 8.59958 17.288 6.47759 18.3899L6.20801 18.5299V18.8336V48.8671V49.5458L6.85621 49.3446C9.45983 48.5366 12.2262 48.0464 14.5341 48.0464C16.7379 48.0464 19.4811 48.281 22.2155 49.108ZM31.8043 43.6435V16.032L41.9844 4.006V32.8201L31.8043 43.6435Z" fill="url(#paint0_linear)" stroke="black"/>
<rect x="63.5032" y="46.4898" width="80.4969" height="3.16976" fill="#84FEFF" stroke="black"/>
<rect x="63.5032" y="14.7922" width="80.4969" height="3.16976" fill="#69FAA3" stroke="black"/>
<path d="M67.9124 31.6976V24.2381H70.1216C70.6702 24.2381 71.1114 24.4071 71.4453 24.7452C71.7852 25.0834 71.9552 25.5483 71.9552 26.1399C71.9552 26.4992 71.8836 26.8197 71.7405 27.1014C71.6034 27.3832 71.4126 27.598 71.1681 27.746V27.7671C71.496 27.8798 71.7524 28.1017 71.9373 28.4327C72.1221 28.7638 72.2145 29.1442 72.2145 29.5738C72.2145 30.2501 72.0208 30.7748 71.6332 31.1482C71.2456 31.5144 70.7596 31.6976 70.1753 31.6976H67.9124ZM68.7979 27.3761H70.1216C70.4019 27.3761 70.6255 27.2705 70.7924 27.0592C70.9653 26.8479 71.0518 26.5767 71.0518 26.2456C71.0518 25.9145 70.9683 25.6504 70.8014 25.4532C70.6344 25.2489 70.4049 25.1468 70.1127 25.1468H68.7979V27.3761ZM68.7979 30.7889H70.22C70.5539 30.7889 70.8163 30.6727 71.0071 30.4402C71.2039 30.2078 71.3022 29.8979 71.3022 29.5105C71.3022 29.1301 71.2039 28.8237 71.0071 28.5912C70.8103 28.3588 70.548 28.2425 70.22 28.2425H68.7979V30.7889Z" fill="#F7F7F7"/>
<path d="M74.2987 31.6976V24.2381H77.9748V25.1468H75.1842V27.4818H77.447V28.3905H75.1842V30.7889H78.1268V31.6976H74.2987Z" fill="#F7F7F7"/>
<path d="M80.1522 31.6976V24.2381H82.4687C83.0531 24.2381 83.5271 24.4529 83.8909 24.8826C84.2605 25.3052 84.4454 25.8688 84.4454 26.5731C84.4454 27.2775 84.2605 27.8481 83.8909 28.2848C83.5212 28.7215 83.0471 28.9399 82.4687 28.9399H81.0377V31.6976H80.1522ZM81.0377 28.0312H82.3256C82.7013 28.0312 82.9994 27.9009 83.22 27.6403C83.4407 27.3797 83.551 27.024 83.551 26.5731C83.551 26.1294 83.4407 25.7807 83.22 25.5271C83.0054 25.2735 82.7102 25.1468 82.3346 25.1468H81.0377V28.0312Z" fill="#F7F7F7"/>
<path d="M85.9705 27.9256C85.9705 26.8338 86.2716 25.9251 86.8739 25.1996C87.4821 24.4741 88.2512 24.1113 89.1814 24.1113C90.1414 24.1113 90.9106 24.4388 91.489 25.0939L91.0418 25.8758C90.8093 25.6293 90.526 25.432 90.1921 25.2841C89.8642 25.1362 89.5392 25.0622 89.2172 25.0622C88.5017 25.0622 87.9322 25.3334 87.5089 25.8758C87.0915 26.4182 86.8828 27.0979 86.8828 27.915C86.8828 28.7391 87.0975 29.4365 87.5268 30.007C87.9561 30.5776 88.5255 30.8629 89.2351 30.8629C89.5869 30.8629 89.9327 30.7784 90.2726 30.6093C90.6184 30.4332 90.9196 30.1937 91.176 29.8908L91.65 30.641C90.9822 31.4299 90.1683 31.8244 89.2083 31.8244C88.2483 31.8244 87.4671 31.4546 86.8649 30.715C86.2686 29.9683 85.9705 29.0385 85.9705 27.9256Z" fill="#F7F7F7"/>
<path d="M95.0469 31.6976V25.1468H92.8735V24.2381H98.0969V25.1468H95.9235V31.6976H95.0469Z" fill="#F7F7F7"/>
<path d="M98.6484 31.6976L100.911 24.2381H101.85L104.113 31.6976H103.201L102.566 29.5527H100.187L99.5518 31.6976H98.6484ZM100.419 28.6863H102.333L101.636 26.3301L101.385 25.263H101.367C101.278 25.7138 101.197 26.0695 101.126 26.3301L100.419 28.6863Z" fill="#F7F7F7"/>
<path d="M105.156 30.8206C105.675 30.7361 106.045 30.3029 106.265 29.521C106.486 28.7391 106.596 27.5663 106.596 26.0026V24.2381H110.281V31.6976H109.396V25.1468H107.437V26.0132C107.437 27.9009 107.264 29.3203 106.918 30.2712C106.578 31.2221 105.991 31.7258 105.156 31.7821V30.8206Z" fill="#F7F7F7"/>
<path d="M112.748 31.6976V24.2381H113.633V27.0486H114.975C115.541 27.0486 116.003 27.2599 116.361 27.6826C116.719 28.0981 116.898 28.6687 116.898 29.3942C116.898 30.0845 116.722 30.641 116.37 31.0636C116.018 31.4863 115.565 31.6976 115.01 31.6976H112.748ZM113.633 30.7889H114.858C115.216 30.7889 115.493 30.6657 115.69 30.4191C115.893 30.1726 115.994 29.831 115.994 29.3942C115.994 28.9575 115.89 28.6088 115.681 28.3482C115.478 28.0876 115.201 27.9573 114.849 27.9573H113.633V30.7889Z" fill="#F7F7F7"/>
<path d="M118.819 31.6976V24.2381H119.705V30.7889H122.039V24.2381H122.925V30.7889H125.259V24.2381H126.136V30.7889H126.914V33.1768H126.109V31.6976H118.819Z" fill="#F7F7F7"/>
<path d="M128.892 31.6976V24.2381H129.777V29.0773L129.723 30.1655H129.741C129.95 29.7006 130.129 29.3344 130.278 29.0667L133.077 24.2381H133.945V31.6976H133.069V26.8584L133.122 25.7701H133.104C132.902 26.2209 132.726 26.5837 132.577 26.8584L129.759 31.6976H128.892Z" fill="#F7F7F7"/>
<path d="M136.422 31.6976V24.2381H137.308V27.3761H138.247L139.848 24.2381H140.823L138.98 27.7777V27.7988L140.939 31.6976H139.928L138.247 28.2848H137.308V31.6976H136.422Z" fill="#F7F7F7"/>
<path d="M67.5278 38.4914C67.5278 37.3996 67.829 36.491 68.4312 35.7654C69.0394 35.0399 69.8086 34.6772 70.7388 34.6772C71.6988 34.6772 72.468 35.0047 73.0463 35.6598L72.5991 36.4417C72.3666 36.1951 72.0834 35.9979 71.7494 35.85C71.4215 35.702 71.0965 35.6281 70.7745 35.6281C70.059 35.6281 69.4896 35.8993 69.0662 36.4417C68.6488 36.984 68.4401 37.6638 68.4401 38.4809C68.4401 39.305 68.6548 40.0024 69.0841 40.5729C69.5134 41.1435 70.0829 41.4287 70.7924 41.4287C71.1442 41.4287 71.4901 41.3442 71.8299 41.1752C72.1758 40.9991 72.4769 40.7596 72.7333 40.4567L73.2073 41.2069C72.5395 41.9958 71.7256 42.3902 70.7656 42.3902C69.8056 42.3902 69.0245 42.0204 68.4222 41.2808C67.826 40.5342 67.5278 39.6044 67.5278 38.4914Z" fill="#F7F7F7"/>
<path d="M74.4309 42.2634L76.6937 34.8039H77.6328L79.8957 42.2634H78.9834L78.3484 40.1186H75.9692L75.3342 42.2634H74.4309ZM76.2018 39.2522H78.1158L77.4182 36.896L77.1678 35.8288H77.1499C77.0604 36.2796 76.9799 36.6354 76.9084 36.896L76.2018 39.2522Z" fill="#F7F7F7"/>
<path d="M84.2213 34.4553C83.8576 34.4553 83.5445 34.3355 83.2822 34.096C83.0258 33.8495 82.8976 33.5184 82.8976 33.1028V32.9444H83.5952V33.0923C83.5952 33.3106 83.6578 33.4832 83.783 33.61C83.9083 33.7298 84.0543 33.7896 84.2213 33.7896C84.3942 33.7896 84.5433 33.7298 84.6685 33.61C84.7937 33.4832 84.8563 33.3071 84.8563 33.0817V32.9444H85.545V33.1028C85.545 33.5184 85.4168 33.8495 85.1604 34.096C84.904 34.3355 84.591 34.4553 84.2213 34.4553ZM81.6633 42.2634V34.8039H82.5487V39.6431L82.4951 40.7314H82.513C82.7217 40.2665 82.9006 39.9002 83.0496 39.6325L85.8491 34.8039H86.7167V42.2634H85.8402V37.4243L85.8938 36.336H85.876C85.6732 36.7868 85.4973 37.1496 85.3483 37.4243L82.5309 42.2634H81.6633Z" fill="#F7F7F7"/>
<path d="M90.6696 42.2634V35.7126H88.4962V34.8039H93.7195V35.7126H91.5461V42.2634H90.6696Z" fill="#F7F7F7"/>
<path d="M94.8284 38.4809C94.8284 37.4102 95.1415 36.5086 95.7676 35.776C96.3937 35.0434 97.1629 34.6772 98.0751 34.6772C98.9874 34.6772 99.7537 35.0434 100.374 35.776C101 36.5086 101.313 37.4102 101.313 38.4809C101.313 39.5797 101 40.506 100.374 41.2597C99.7537 42.0134 98.9874 42.3902 98.0751 42.3902C97.1629 42.3902 96.3937 42.0134 95.7676 41.2597C95.1415 40.506 94.8284 39.5797 94.8284 38.4809ZM95.7407 38.4809C95.7407 39.312 95.9673 40.0129 96.4205 40.5835C96.8737 41.147 97.4252 41.4287 98.0751 41.4287C98.7251 41.4287 99.2737 41.147 99.7209 40.5835C100.174 40.0129 100.401 39.312 100.401 38.4809C100.401 37.6779 100.174 37.0016 99.7209 36.4522C99.2737 35.9028 98.7251 35.6281 98.0751 35.6281C97.4252 35.6281 96.8737 35.9028 96.4205 36.4522C95.9673 37.0016 95.7407 37.6779 95.7407 38.4809Z" fill="#F7F7F7"/>
<path d="M103.39 42.2634V34.8039H105.599C106.148 34.8039 106.589 34.973 106.923 35.3111C107.263 35.6492 107.433 36.1141 107.433 36.7058C107.433 37.065 107.361 37.3855 107.218 37.6673C107.081 37.9491 106.89 38.1639 106.646 38.3118V38.3329C106.974 38.4456 107.23 38.6675 107.415 38.9986C107.6 39.3297 107.692 39.71 107.692 40.1397C107.692 40.8159 107.498 41.3407 107.111 41.714C106.723 42.0803 106.237 42.2634 105.653 42.2634H103.39ZM104.276 37.942H105.599C105.88 37.942 106.103 37.8364 106.27 37.625C106.443 37.4137 106.529 37.1425 106.529 36.8115C106.529 36.4804 106.446 36.2163 106.279 36.019C106.112 35.8147 105.883 35.7126 105.59 35.7126H104.276V37.942ZM104.276 41.3548H105.698C106.032 41.3548 106.294 41.2386 106.485 41.0061C106.682 40.7737 106.78 40.4637 106.78 40.0763C106.78 39.6959 106.682 39.3895 106.485 39.1571C106.288 38.9246 106.026 38.8084 105.698 38.8084H104.276V41.3548Z" fill="#F7F7F7"/>
<path d="M1.89258 71.8479V62.8965H2.95514V66.6621H4.08209L6.00329 62.8965H7.17317L4.96219 67.1439V67.1693L7.3127 71.8479H6.09988L4.08209 67.7525H2.95514V71.8479H1.89258Z" fill="#F7F7F7"/>
<path d="M8.89774 67.3088C8.89774 66.024 9.27339 64.942 10.0247 64.0629C10.776 63.1838 11.699 62.7443 12.7938 62.7443C13.8885 62.7443 14.808 63.1838 15.5521 64.0629C16.3035 64.942 16.6791 66.024 16.6791 67.3088C16.6791 68.6274 16.3035 69.7389 15.5521 70.6433C14.808 71.5478 13.8885 72 12.7938 72C11.699 72 10.776 71.5478 10.0247 70.6433C9.27339 69.7389 8.89774 68.6274 8.89774 67.3088ZM9.99249 67.3088C9.99249 68.3062 10.2644 69.1472 10.8082 69.8319C11.352 70.5081 12.0139 70.8462 12.7938 70.8462C13.5737 70.8462 14.232 70.5081 14.7686 69.8319C15.3124 69.1472 15.5843 68.3062 15.5843 67.3088C15.5843 66.3452 15.3124 65.5337 14.7686 64.8744C14.232 64.2151 13.5737 63.8854 12.7938 63.8854C12.0139 63.8854 11.352 64.2151 10.8082 64.8744C10.2644 65.5337 9.99249 66.3452 9.99249 67.3088Z" fill="#F7F7F7"/>
<path d="M19.2791 71.8479V62.8965H22.0589C22.7601 62.8965 23.329 63.1543 23.7654 63.6699C24.2091 64.177 24.4309 64.8533 24.4309 65.6985C24.4309 66.5438 24.2091 67.2285 23.7654 67.7525C23.3218 68.2766 22.753 68.5386 22.0589 68.5386H20.3416V71.8479H19.2791ZM20.3416 67.4482H21.8872C22.3379 67.4482 22.6957 67.2919 22.9605 66.9791C23.2252 66.6664 23.3576 66.2395 23.3576 65.6985C23.3576 65.166 23.2252 64.7476 22.9605 64.4433C22.7029 64.139 22.3487 63.9869 21.8979 63.9869H20.3416V67.4482Z" fill="#F7F7F7"/>
<path d="M26.3576 67.3088C26.3576 66.024 26.7332 64.942 27.4846 64.0629C28.2359 63.1838 29.1589 62.7443 30.2536 62.7443C31.3484 62.7443 32.2679 63.1838 33.012 64.0629C33.7633 64.942 34.139 66.024 34.139 67.3088C34.139 68.6274 33.7633 69.7389 33.012 70.6433C32.2679 71.5478 31.3484 72 30.2536 72C29.1589 72 28.2359 71.5478 27.4846 70.6433C26.7332 69.7389 26.3576 68.6274 26.3576 67.3088ZM27.4524 67.3088C27.4524 68.3062 27.7243 69.1472 28.2681 69.8319C28.8119 70.5081 29.4737 70.8462 30.2536 70.8462C31.0336 70.8462 31.6919 70.5081 32.2285 69.8319C32.7723 69.1472 33.0442 68.3062 33.0442 67.3088C33.0442 66.3452 32.7723 65.5337 32.2285 64.8744C31.6919 64.2151 31.0336 63.8854 30.2536 63.8854C29.4737 63.8854 28.8119 64.2151 28.2681 64.8744C27.7243 65.5337 27.4524 66.3452 27.4524 67.3088Z" fill="#F7F7F7"/>
<path d="M36.7389 71.8479V62.8965H41.2146V63.9869H37.8015V66.4846H39.4651C40.1448 66.4846 40.6994 66.7255 41.1287 67.2073C41.558 67.6807 41.7727 68.34 41.7727 69.1853C41.7727 69.9798 41.5616 70.6222 41.1394 71.1125C40.7244 71.6027 40.1842 71.8479 39.5188 71.8479H36.7389ZM37.8015 70.7575H39.347C39.7692 70.7575 40.0983 70.618 40.3345 70.3391C40.5777 70.0601 40.6994 69.6755 40.6994 69.1853C40.6994 68.695 40.5742 68.3062 40.3237 68.0188C40.0804 67.7229 39.7477 67.575 39.3256 67.575H37.8015V70.7575Z" fill="#F7F7F7"/>
<path d="M44.3107 71.8479V62.8965H48.7219V63.9869H45.3732V66.7889H48.0887V67.8793H45.3732V70.7575H48.9044V71.8479H44.3107Z" fill="#F7F7F7"/>
<path d="M54.5118 62.478C54.0753 62.478 53.6997 62.3344 53.3848 62.047C53.0772 61.7511 52.9233 61.3538 52.9233 60.8551V60.6649H53.7605V60.8425C53.7605 61.1045 53.8356 61.3116 53.9859 61.4637C54.1361 61.6074 54.3115 61.6793 54.5118 61.6793C54.7193 61.6793 54.8982 61.6074 55.0484 61.4637C55.1987 61.3116 55.2738 61.1003 55.2738 60.8298V60.6649H56.1003V60.8551C56.1003 61.3538 55.9464 61.7511 55.6388 62.047C55.3311 62.3344 54.9554 62.478 54.5118 62.478ZM51.4422 71.8479V62.8965H52.5047V68.7035L52.4403 70.0094H52.4618C52.7122 69.4515 52.9269 69.012 53.1058 68.6908L56.4652 62.8965H57.5063V71.8479H56.4545V66.0409L56.5189 64.7349H56.4974C56.2541 65.2759 56.043 65.7112 55.8642 66.0409L52.4833 71.8479H51.4422Z" fill="#F7F7F7"/>
<path d="M60.5861 71.8479V62.8965H61.6487V66.827H65.5877V62.8965H66.6395V71.8479H65.5877V67.9174H61.6487V71.8479H60.5861Z" fill="#F7F7F7"/>
<path d="M69.7091 71.8479V62.8965H70.7717V68.7035L70.7073 70.0094H70.7287C70.9792 69.4515 71.1938 69.012 71.3727 68.6908L74.7321 62.8965H75.7732V71.8479H74.7214V66.0409L74.7858 64.7349H74.7643C74.521 65.2759 74.31 65.7112 74.1311 66.0409L70.7502 71.8479H69.7091Z" fill="#F7F7F7"/>
<path d="M78.8531 71.8479V62.8965H79.9156V66.6621H81.0426L82.9638 62.8965H84.1337L81.9227 67.1439V67.1693L84.2732 71.8479H83.0604L81.0426 67.7525H79.9156V71.8479H78.8531Z" fill="#F7F7F7"/>
<path d="M85.8582 67.3088C85.8582 66.024 86.2339 64.942 86.9852 64.0629C87.7365 63.1838 88.6595 62.7443 89.7543 62.7443C90.849 62.7443 91.7685 63.1838 92.5126 64.0629C93.2639 64.942 93.6396 66.024 93.6396 67.3088C93.6396 68.6274 93.2639 69.7389 92.5126 70.6433C91.7685 71.5478 90.849 72 89.7543 72C88.6595 72 87.7365 71.5478 86.9852 70.6433C86.2339 69.7389 85.8582 68.6274 85.8582 67.3088ZM86.953 67.3088C86.953 68.3062 87.2249 69.1472 87.7687 69.8319C88.3125 70.5081 88.9743 70.8462 89.7543 70.8462C90.5342 70.8462 91.1925 70.5081 91.7291 69.8319C92.2729 69.1472 92.5448 68.3062 92.5448 67.3088C92.5448 66.3452 92.2729 65.5337 91.7291 64.8744C91.1925 64.2151 90.5342 63.8854 89.7543 63.8854C88.9743 63.8854 88.3125 64.2151 87.7687 64.8744C87.2249 65.5337 86.953 66.3452 86.953 67.3088Z" fill="#F7F7F7"/>
<path d="M96.2395 71.8479V62.8965H98.8906C99.5489 62.8965 100.078 63.0993 100.479 63.5051C100.887 63.9108 101.091 64.4687 101.091 65.1787C101.091 65.6098 101.005 65.9944 100.833 66.3325C100.669 66.6706 100.44 66.9284 100.146 67.1059V67.1313C100.54 67.2665 100.848 67.5328 101.069 67.93C101.291 68.3273 101.402 68.7838 101.402 69.2994C101.402 70.1108 101.17 70.7406 100.704 71.1885C100.239 71.6281 99.6562 71.8479 98.955 71.8479H96.2395ZM97.3021 66.6621H98.8906C99.2269 66.6621 99.4952 66.5353 99.6955 66.2818C99.9031 66.0282 100.007 65.7028 100.007 65.3055C100.007 64.9082 99.9066 64.5912 99.7063 64.3545C99.5059 64.1094 99.2305 63.9869 98.8798 63.9869H97.3021V66.6621ZM97.3021 70.7575H99.0086C99.4093 70.7575 99.7242 70.618 99.9531 70.3391C100.189 70.0601 100.307 69.6882 100.307 69.2233C100.307 68.7669 100.189 68.3992 99.9531 68.1202C99.717 67.8413 99.4022 67.7018 99.0086 67.7018H97.3021V70.7575Z" fill="#F7F7F7"/>
<path d="M107.767 71.8479V62.8965H108.83V66.827H110.117C110.203 65.6605 110.6 64.6884 111.309 63.9108C112.024 63.1331 112.879 62.7443 113.874 62.7443C114.947 62.7443 115.849 63.1838 116.579 64.0629C117.316 64.942 117.684 66.024 117.684 67.3088C117.684 68.6274 117.316 69.7389 116.579 70.6433C115.849 71.5478 114.947 72 113.874 72C112.894 72 112.053 71.6154 111.352 70.8462C110.651 70.0686 110.246 69.0923 110.139 67.9174H108.83V71.8479H107.767ZM111.18 67.3088C111.18 68.2977 111.441 69.1345 111.964 69.8192C112.486 70.5039 113.123 70.8462 113.874 70.8462C114.625 70.8462 115.266 70.5039 115.795 69.8192C116.325 69.1345 116.589 68.2977 116.589 67.3088C116.589 66.3536 116.325 65.5464 115.795 64.8871C115.273 64.2278 114.632 63.8981 113.874 63.8981C113.123 63.8981 112.486 64.2278 111.964 64.8871C111.441 65.5464 111.18 66.3536 111.18 67.3088Z" fill="#F7F7F7"/>
<path d="M120.286 71.8479V62.8965H123.066C123.767 62.8965 124.336 63.1543 124.772 63.6699C125.216 64.177 125.438 64.8533 125.438 65.6985C125.438 66.5438 125.216 67.2285 124.772 67.7525C124.329 68.2766 123.76 68.5386 123.066 68.5386H121.348V71.8479H120.286ZM121.348 67.4482H122.894C123.345 67.4482 123.703 67.2919 123.967 66.9791C124.232 66.6664 124.364 66.2395 124.364 65.6985C124.364 65.166 124.232 64.7476 123.967 64.4433C123.71 64.139 123.356 63.9869 122.905 63.9869H121.348V67.4482Z" fill="#F7F7F7"/>
<path d="M127.837 71.8479V62.8965H128.899V68.7035L128.835 70.0094H128.856C129.107 69.4515 129.321 69.012 129.5 68.6908L132.86 62.8965H133.901V71.8479H132.849V66.0409L132.913 64.7349H132.892C132.649 65.2759 132.438 65.7112 132.259 66.0409L128.878 71.8479H127.837Z" fill="#F7F7F7"/>
<path d="M140.05 62.478C139.614 62.478 139.238 62.3344 138.923 62.047C138.616 61.7511 138.462 61.3538 138.462 60.8551V60.6649H139.299V60.8425C139.299 61.1045 139.374 61.3116 139.524 61.4637C139.675 61.6074 139.85 61.6793 140.05 61.6793C140.258 61.6793 140.437 61.6074 140.587 61.4637C140.737 61.3116 140.812 61.1003 140.812 60.8298V60.6649H141.639V60.8551C141.639 61.3538 141.485 61.7511 141.177 62.047C140.87 62.3344 140.494 62.478 140.05 62.478ZM136.981 71.8479V62.8965H138.043V68.7035L137.979 70.0094H138C138.251 69.4515 138.465 69.012 138.644 68.6908L142.004 62.8965H143.045V71.8479H141.993V66.0409L142.057 64.7349H142.036C141.793 65.2759 141.581 65.7112 141.403 66.0409L138.022 71.8479H136.981Z" fill="#F7F7F7"/>
<defs>
<linearGradient id="paint0_linear" x1="2" y1="14.5" x2="54.4962" y2="47.5685" gradientUnits="userSpaceOnUse">
<stop stop-color="#69FAA3"/>
<stop offset="1" stop-color="#84FEFF"/>
</linearGradient>
</defs>
</svg>
