<svg width="81" height="40" viewBox="0 0 81 40" fill="none" xmlns="http://www.w3.org/2000/svg">
<path d="M26.587 27.1484V8.09835C27.1261 8.35608 27.6135 8.65549 28.0715 9.03483V30.2301C28.0715 30.2781 28.0477 30.3502 27.9958 30.4115C27.9718 30.4398 27.95 30.4558 27.9371 30.4629C27.9365 30.4632 27.9359 30.4635 27.9354 30.4638L27.9117 30.4637C27.9073 30.4637 27.9035 30.4636 27.9003 30.4636C27.9 30.4634 27.8997 30.4632 27.8994 30.4631C26.0602 29.3017 23.8511 28.8496 21.7392 28.8496C20.6176 28.8496 19.276 29.101 18.0079 29.5062C16.8887 29.8637 15.7942 30.3514 14.9359 30.9201C13.0276 29.3885 10.4307 28.8496 8.07461 28.8496C6.21264 28.8496 3.75743 29.5127 2.01466 30.4799C1.94763 30.4933 1.89447 30.5123 1.86033 30.5255C1.84838 30.5166 1.83366 30.5033 1.81804 30.4849C1.76615 30.4236 1.74231 30.3515 1.74231 30.3035V9.03339C3.40916 7.64168 5.79103 7.10367 8.07461 7.10367C10.3582 7.10367 12.7401 7.64168 14.4069 9.03339V28.6159V29.6109L15.2053 29.0171C15.9854 28.4368 17.1103 27.9078 18.3122 27.5238C19.513 27.1402 20.749 26.9147 21.7392 26.9147C23.1825 26.9147 24.6116 27.128 25.9111 27.6164L26.587 27.8705V27.1484ZM12.2777 27.4949L12.9224 27.6899V27.0163V10.4631V10.1594L12.6529 10.0194C11.4352 9.38713 9.82402 9.03863 8.07461 9.03863C6.3252 9.03863 4.714 9.38713 3.49636 10.0194L3.22678 10.1594V10.4631V27.1484V27.8271L3.87498 27.6259C5.30593 27.1818 6.82017 26.9147 8.07461 26.9147C9.28461 26.9147 10.7856 27.0437 12.2777 27.4949ZM17.8914 23.6858V8.9881L23.1026 2.83202V18.1453L17.8914 23.6858Z" fill="url(#paint0_linear)" stroke="black"/>
<rect x="35.2795" y="25.8277" width="44.7205" height="1.76098" fill="#FF8801" stroke="black"/>
<rect x="35.2795" y="8.2179" width="44.7205" height="1.76098" fill="#AD6734" stroke="black"/>
<path d="M37.7292 17.6098V13.4656H38.9565C39.2613 13.4656 39.5064 13.5595 39.6919 13.7474C39.8807 13.9352 39.9751 14.1935 39.9751 14.5222C39.9751 14.7218 39.9354 14.8998 39.8559 15.0564C39.7797 15.2129 39.6737 15.3322 39.5379 15.4144V15.4262C39.7201 15.4888 39.8625 15.612 39.9652 15.796C40.0679 15.9799 40.1192 16.1912 40.1192 16.4299C40.1192 16.8056 40.0116 17.0971 39.7962 17.3045C39.5809 17.508 39.3109 17.6098 38.9863 17.6098H37.7292ZM38.2211 15.209H38.9565C39.1122 15.209 39.2364 15.1503 39.3292 15.0329C39.4252 14.9155 39.4733 14.7648 39.4733 14.5809C39.4733 14.397 39.4269 14.2502 39.3341 14.1407C39.2414 14.0272 39.1138 13.9704 38.9515 13.9704H38.2211V15.209ZM38.2211 17.105H39.0112C39.1967 17.105 39.3424 17.0404 39.4484 16.9113C39.5577 16.7821 39.6124 16.6099 39.6124 16.3947C39.6124 16.1834 39.5577 16.0132 39.4484 15.884C39.3391 15.7549 39.1933 15.6903 39.0112 15.6903H38.2211V17.105Z" fill="#F7F7F7"/>
<path d="M41.2771 17.6098V13.4656H43.3193V13.9704H41.769V15.2677H43.0262V15.7725H41.769V17.105H43.4038V17.6098H41.2771Z" fill="#F7F7F7"/>
<path d="M44.5291 17.6098V13.4656H45.816C46.1406 13.4656 46.404 13.585 46.6061 13.8237C46.8115 14.0585 46.9141 14.3715 46.9141 14.7629C46.9141 15.1542 46.8115 15.4712 46.6061 15.7138C46.4007 15.9564 46.1373 16.0777 45.816 16.0777H45.021V17.6098H44.5291ZM45.021 15.5729H45.7365C45.9452 15.5729 46.1108 15.5005 46.2334 15.3557C46.356 15.2109 46.4173 15.0133 46.4173 14.7629C46.4173 14.5163 46.356 14.3226 46.2334 14.1817C46.1141 14.0409 45.9502 13.9704 45.7415 13.9704H45.021V15.5729Z" fill="#F7F7F7"/>
<path d="M47.7614 15.5142C47.7614 14.9077 47.9287 14.4028 48.2633 13.9998C48.6012 13.5967 49.0285 13.3952 49.5453 13.3952C50.0786 13.3952 50.5059 13.5771 50.8273 13.9411L50.5788 14.3754C50.4496 14.2385 50.2923 14.1289 50.1068 14.0467C49.9246 13.9646 49.744 13.9235 49.5652 13.9235C49.1676 13.9235 48.8513 14.0741 48.6161 14.3754C48.3842 14.6768 48.2683 15.0544 48.2683 15.5083C48.2683 15.9662 48.3875 16.3536 48.626 16.6706C48.8645 16.9876 49.1809 17.1461 49.5751 17.1461C49.7705 17.1461 49.9627 17.0991 50.1515 17.0052C50.3436 16.9073 50.5109 16.7743 50.6534 16.606L50.9167 17.0228C50.5457 17.4611 50.0935 17.6802 49.5602 17.6802C49.0269 17.6802 48.5929 17.4748 48.2583 17.0639C47.9271 16.6491 47.7614 16.1325 47.7614 15.5142Z" fill="#F7F7F7"/>
<path d="M52.8039 17.6098V13.9704H51.5964V13.4656H54.4983V13.9704H53.2909V17.6098H52.8039Z" fill="#F7F7F7"/>
<path d="M54.8047 17.6098L56.0619 13.4656H56.5836L57.8407 17.6098H57.3339L56.9811 16.4182H55.6594L55.3066 17.6098H54.8047ZM55.7886 15.9368H56.8519L56.4643 14.6279L56.3252 14.035H56.3153C56.2656 14.2854 56.2209 14.4831 56.1811 14.6279L55.7886 15.9368Z" fill="#F7F7F7"/>
<path d="M58.4202 17.1226C58.7084 17.0756 58.9138 16.8349 59.0364 16.4006C59.159 15.9662 59.2202 15.3146 59.2202 14.4459V13.4656H61.2674V17.6098H60.7755V13.9704H59.6873V14.4518C59.6873 15.5005 59.5913 16.289 59.3991 16.8173C59.2103 17.3456 58.884 17.6254 58.4202 17.6567V17.1226Z" fill="#F7F7F7"/>
<path d="M62.6376 17.6098V13.4656H63.1295V15.027H63.8748C64.1895 15.027 64.4462 15.1444 64.645 15.3792C64.8438 15.6101 64.9431 15.9271 64.9431 16.3301C64.9431 16.7136 64.8454 17.0228 64.65 17.2576C64.4545 17.4924 64.2028 17.6098 63.8947 17.6098H62.6376ZM63.1295 17.105H63.8102C64.009 17.105 64.163 17.0365 64.2723 16.8995C64.385 16.7626 64.4413 16.5728 64.4413 16.3301C64.4413 16.0875 64.3833 15.8938 64.2674 15.749C64.1547 15.6042 64.0007 15.5318 63.8053 15.5318H63.1295V17.105Z" fill="#F7F7F7"/>
<path d="M66.0108 17.6098V13.4656H66.5027V17.105H67.7996V13.4656H68.2916V17.105H69.5884V13.4656H70.0754V17.105H70.5077V18.4316H70.0605V17.6098H66.0108Z" fill="#F7F7F7"/>
<path d="M71.6065 17.6098V13.4656H72.0984V16.154L72.0686 16.7586H72.0785C72.1945 16.5004 72.2939 16.2969 72.3767 16.1482L73.932 13.4656H74.414V17.6098H73.927V14.9214L73.9568 14.3167H73.9469C73.8342 14.5672 73.7365 14.7687 73.6537 14.9214L72.0885 17.6098H71.6065Z" fill="#F7F7F7"/>
<path d="M75.7901 17.6098V13.4656H76.282V15.209H76.8038L77.6932 13.4656H78.2348L77.2112 15.432V15.4438L78.2994 17.6098H77.7379L76.8038 15.7138H76.282V17.6098H75.7901Z" fill="#F7F7F7"/>
<path d="M37.5155 21.3841C37.5155 20.7776 37.6828 20.2728 38.0174 19.8697C38.3553 19.4666 38.7826 19.2651 39.2994 19.2651C39.8327 19.2651 40.26 19.4471 40.5813 19.811L40.3329 20.2454C40.2037 20.1084 40.0464 19.9988 39.8608 19.9167C39.6787 19.8345 39.4981 19.7934 39.3192 19.7934C38.9217 19.7934 38.6054 19.944 38.3702 20.2454C38.1383 20.5467 38.0223 20.9243 38.0223 21.3783C38.0223 21.8361 38.1416 22.2235 38.3801 22.5405C38.6186 22.8575 38.935 23.016 39.3292 23.016C39.5246 23.016 39.7167 22.969 39.9056 22.8751C40.0977 22.7773 40.265 22.6442 40.4074 22.4759L40.6708 22.8927C40.2998 23.331 39.8476 23.5501 39.3143 23.5501C38.7809 23.5501 38.347 23.3447 38.0124 22.9338C37.6811 22.519 37.5155 22.0024 37.5155 21.3841Z" fill="#F7F7F7"/>
<path d="M41.3505 23.4797L42.6077 19.3355H43.1294L44.3865 23.4797H43.8797L43.5269 22.2881H42.2052L41.8524 23.4797H41.3505ZM42.3344 21.8068H43.3977L43.0101 20.4978L42.871 19.9049H42.8611C42.8114 20.1554 42.7667 20.353 42.7269 20.4978L42.3344 21.8068Z" fill="#F7F7F7"/>
<path d="M46.7896 19.1418C46.5876 19.1418 46.4137 19.0753 46.2679 18.9422C46.1255 18.8053 46.0542 18.6214 46.0542 18.3905V18.3024H46.4418V18.3846C46.4418 18.5059 46.4766 18.6018 46.5462 18.6722C46.6157 18.7388 46.6969 18.772 46.7896 18.772C46.8857 18.772 46.9685 18.7388 47.0381 18.6722C47.1077 18.6018 47.1424 18.504 47.1424 18.3787V18.3024H47.5251V18.3905C47.5251 18.6214 47.4538 18.8053 47.3114 18.9422C47.1689 19.0753 46.995 19.1418 46.7896 19.1418ZM45.3685 23.4797V19.3355H45.8605V22.024L45.8306 22.6286H45.8406C45.9565 22.3703 46.0559 22.1668 46.1387 22.0181L47.694 19.3355H48.176V23.4797H47.689V20.7913L47.7188 20.1867H47.7089C47.5963 20.4371 47.4986 20.6387 47.4157 20.7913L45.8505 23.4797H45.3685Z" fill="#F7F7F7"/>
<path d="M50.372 23.4797V19.8403H49.1646V19.3355H52.0664V19.8403H50.859V23.4797H50.372Z" fill="#F7F7F7"/>
<path d="M52.6825 21.3783C52.6825 20.7834 52.8564 20.2825 53.2042 19.8756C53.5521 19.4686 53.9794 19.2651 54.4862 19.2651C54.9931 19.2651 55.4187 19.4686 55.7633 19.8756C56.1111 20.2825 56.285 20.7834 56.285 21.3783C56.285 21.9887 56.1111 22.5033 55.7633 22.9221C55.4187 23.3408 54.9931 23.5501 54.4862 23.5501C53.9794 23.5501 53.5521 23.3408 53.2042 22.9221C52.8564 22.5033 52.6825 21.9887 52.6825 21.3783ZM53.1893 21.3783C53.1893 21.84 53.3152 22.2294 53.567 22.5464C53.8187 22.8594 54.1252 23.016 54.4862 23.016C54.8473 23.016 55.1521 22.8594 55.4005 22.5464C55.6523 22.2294 55.7782 21.84 55.7782 21.3783C55.7782 20.9322 55.6523 20.5565 55.4005 20.2512C55.1521 19.946 54.8473 19.7934 54.4862 19.7934C54.1252 19.7934 53.8187 19.946 53.567 20.2512C53.3152 20.5565 53.1893 20.9322 53.1893 21.3783Z" fill="#F7F7F7"/>
<path d="M57.439 23.4797V19.3355H58.6663C58.9711 19.3355 59.2162 19.4295 59.4017 19.6173C59.5905 19.8051 59.685 20.0634 59.685 20.3921C59.685 20.5917 59.6452 20.7698 59.5657 20.9263C59.4895 21.0828 59.3835 21.2022 59.2477 21.2843V21.2961C59.4299 21.3587 59.5723 21.482 59.675 21.6659C59.7777 21.8498 59.8291 22.0611 59.8291 22.2998C59.8291 22.6755 59.7214 22.9671 59.5061 23.1745C59.2907 23.378 59.0208 23.4797 58.6961 23.4797H57.439ZM57.9309 21.0789H58.6663C58.822 21.0789 58.9462 21.0202 59.039 20.9028C59.1351 20.7854 59.1831 20.6347 59.1831 20.4508C59.1831 20.2669 59.1367 20.1201 59.044 20.0106C58.9512 19.8971 58.8237 19.8403 58.6613 19.8403H57.9309V21.0789ZM57.9309 22.9749H58.721C58.9065 22.9749 59.0522 22.9103 59.1582 22.7812C59.2676 22.652 59.3222 22.4799 59.3222 22.2646C59.3222 22.0533 59.2676 21.8831 59.1582 21.7539C59.0489 21.6248 58.9032 21.5602 58.721 21.5602H57.9309V22.9749Z" fill="#F7F7F7"/>
<path d="M1.05139 39.9155V34.9425H1.6417V37.0345H2.26779L3.33512 34.9425H3.98506L2.75673 37.3022V37.3163L4.06257 39.9155H3.38878L2.26779 37.6403H1.6417V39.9155H1.05139Z" fill="#F7F7F7"/>
<path d="M4.94315 37.3938C4.94315 36.68 5.15184 36.0789 5.56923 35.5905C5.98662 35.1021 6.49942 34.8579 7.10762 34.8579C7.71582 34.8579 8.22662 35.1021 8.64004 35.5905C9.05743 36.0789 9.26613 36.68 9.26613 37.3938C9.26613 38.1263 9.05743 38.7438 8.64004 39.2463C8.22662 39.7488 7.71582 40 7.10762 40C6.49942 40 5.98662 39.7488 5.56923 39.2463C5.15184 38.7438 4.94315 38.1263 4.94315 37.3938ZM5.55134 37.3938C5.55134 37.9479 5.7024 38.4151 6.00451 38.7955C6.30662 39.1712 6.67433 39.359 7.10762 39.359C7.54091 39.359 7.90662 39.1712 8.20476 38.7955C8.50687 38.4151 8.65793 37.9479 8.65793 37.3938C8.65793 36.8584 8.50687 36.4076 8.20476 36.0413C7.90662 35.675 7.54091 35.4919 7.10762 35.4919C6.67433 35.4919 6.30662 35.675 6.00451 36.0413C5.7024 36.4076 5.55134 36.8584 5.55134 37.3938Z" fill="#F7F7F7"/>
<path d="M10.7106 39.9155V34.9425H12.2549C12.6445 34.9425 12.9605 35.0857 13.203 35.3721C13.4494 35.6539 13.5727 36.0296 13.5727 36.4992C13.5727 36.9688 13.4494 37.3491 13.203 37.6403C12.9565 37.9314 12.6405 38.077 12.2549 38.077H11.3009V39.9155H10.7106ZM11.3009 37.4712H12.1595C12.4099 37.4712 12.6087 37.3844 12.7558 37.2106C12.9029 37.0369 12.9764 36.7997 12.9764 36.4992C12.9764 36.2033 12.9029 35.9709 12.7558 35.8018C12.6127 35.6328 12.4159 35.5482 12.1655 35.5482H11.3009V37.4712Z" fill="#F7F7F7"/>
<path d="M14.6431 37.3938C14.6431 36.68 14.8518 36.0789 15.2692 35.5905C15.6865 35.1021 16.1993 34.8579 16.8075 34.8579C17.4157 34.8579 17.9265 35.1021 18.34 35.5905C18.7574 36.0789 18.966 36.68 18.966 37.3938C18.966 38.1263 18.7574 38.7438 18.34 39.2463C17.9265 39.7488 17.4157 40 16.8075 40C16.1993 40 15.6865 39.7488 15.2692 39.2463C14.8518 38.7438 14.6431 38.1263 14.6431 37.3938ZM15.2513 37.3938C15.2513 37.9479 15.4023 38.4151 15.7044 38.7955C16.0065 39.1712 16.3742 39.359 16.8075 39.359C17.2408 39.359 17.6065 39.1712 17.9047 38.7955C18.2068 38.4151 18.3578 37.9479 18.3578 37.3938C18.3578 36.8584 18.2068 36.4076 17.9047 36.0413C17.6065 35.675 17.2408 35.4919 16.8075 35.4919C16.3742 35.4919 16.0065 35.675 15.7044 36.0413C15.4023 36.4076 15.2513 36.8584 15.2513 37.3938Z" fill="#F7F7F7"/>
<path d="M20.4105 39.9155V34.9425H22.8969V35.5482H21.0008V36.9359H21.925C22.3026 36.9359 22.6107 37.0697 22.8492 37.3374C23.0877 37.6004 23.207 37.9667 23.207 38.4362C23.207 38.8777 23.0897 39.2346 22.8552 39.5069C22.6246 39.7793 22.3245 39.9155 21.9548 39.9155H20.4105ZM21.0008 39.3097H21.8594C22.094 39.3097 22.2768 39.2322 22.408 39.0772C22.5431 38.9223 22.6107 38.7086 22.6107 38.4362C22.6107 38.1639 22.5412 37.9479 22.402 37.7882C22.2669 37.6239 22.082 37.5417 21.8475 37.5417H21.0008V39.3097Z" fill="#F7F7F7"/>
<path d="M24.617 39.9155V34.9425H27.0677V35.5482H25.2073V37.105H26.7159V37.7107H25.2073V39.3097H27.169V39.9155H24.617Z" fill="#F7F7F7"/>
<path d="M30.2843 34.71C30.0418 34.71 29.8331 34.6302 29.6582 34.4705C29.4873 34.3062 29.4018 34.0855 29.4018 33.8084V33.7027H29.8669V33.8014C29.8669 33.9469 29.9086 34.062 29.9921 34.1465C30.0756 34.2263 30.173 34.2663 30.2843 34.2663C30.3996 34.2663 30.4989 34.2263 30.5824 34.1465C30.6659 34.062 30.7076 33.9446 30.7076 33.7943V33.7027H31.1668V33.8084C31.1668 34.0855 31.0813 34.3062 30.9104 34.4705C30.7394 34.6302 30.5308 34.71 30.2843 34.71ZM28.579 39.9155V34.9425H29.1693V38.1686L29.1335 38.8941H29.1454C29.2845 38.5842 29.4038 38.34 29.5032 38.1615L31.3695 34.9425H31.9479V39.9155H31.3635V36.6894L31.3993 35.9638H31.3874C31.2522 36.2644 31.135 36.5062 31.0356 36.6894L29.1573 39.9155H28.579Z" fill="#F7F7F7"/>
<path d="M33.6589 39.9155V34.9425H34.2492V37.1261H36.4376V34.9425H37.0219V39.9155H36.4376V37.7319H34.2492V39.9155H33.6589Z" fill="#F7F7F7"/>
<path d="M38.7272 39.9155V34.9425H39.3176V38.1686L39.2818 38.8941H39.2937C39.4328 38.5842 39.5521 38.34 39.6515 38.1615L41.5178 34.9425H42.0962V39.9155H41.5118V36.6894L41.5476 35.9638H41.5357C41.4005 36.2644 41.2833 36.5062 41.1839 36.6894L39.3056 39.9155H38.7272Z" fill="#F7F7F7"/>
<path d="M43.8072 39.9155V34.9425H44.3975V37.0345H45.0236L46.0909 34.9425H46.7409L45.5126 37.3022V37.3163L46.8184 39.9155H46.1446L45.0236 37.6403H44.3975V39.9155H43.8072Z" fill="#F7F7F7"/>
<path d="M47.699 37.3938C47.699 36.68 47.9077 36.0789 48.3251 35.5905C48.7424 35.1021 49.2552 34.8579 49.8634 34.8579C50.4716 34.8579 50.9824 35.1021 51.3959 35.5905C51.8133 36.0789 52.0219 36.68 52.0219 37.3938C52.0219 38.1263 51.8133 38.7438 51.3959 39.2463C50.9824 39.7488 50.4716 40 49.8634 40C49.2552 40 48.7424 39.7488 48.3251 39.2463C47.9077 38.7438 47.699 38.1263 47.699 37.3938ZM48.3072 37.3938C48.3072 37.9479 48.4582 38.4151 48.7603 38.7955C49.0624 39.1712 49.4301 39.359 49.8634 39.359C50.2967 39.359 50.6624 39.1712 50.9606 38.7955C51.2627 38.4151 51.4137 37.9479 51.4137 37.3938C51.4137 36.8584 51.2627 36.4076 50.9606 36.0413C50.6624 35.675 50.2967 35.4919 49.8634 35.4919C49.4301 35.4919 49.0624 35.675 48.7603 36.0413C48.4582 36.4076 48.3072 36.8584 48.3072 37.3938Z" fill="#F7F7F7"/>
<path d="M53.4664 39.9155V34.9425H54.9392C55.3049 34.9425 55.599 35.0552 55.8217 35.2806C56.0482 35.506 56.1615 35.8159 56.1615 36.2104C56.1615 36.4499 56.1138 36.6635 56.0184 36.8514C55.927 37.0392 55.7998 37.1824 55.6368 37.281V37.2951C55.8554 37.3703 56.0264 37.5182 56.1496 37.7389C56.2728 37.9596 56.3344 38.2132 56.3344 38.4996C56.3344 38.9505 56.2053 39.3003 55.9469 39.5492C55.6885 39.7934 55.3645 39.9155 54.9749 39.9155H53.4664ZM54.0567 37.0345H54.9392C55.126 37.0345 55.2751 36.9641 55.3864 36.8232C55.5017 36.6823 55.5593 36.5015 55.5593 36.2808C55.5593 36.0601 55.5036 35.884 55.3923 35.7525C55.281 35.6163 55.128 35.5482 54.9332 35.5482H54.0567V37.0345ZM54.0567 39.3097H55.0048C55.2274 39.3097 55.4023 39.2322 55.5295 39.0772C55.6607 38.9223 55.7262 38.7157 55.7262 38.4574C55.7262 38.2038 55.6607 37.9995 55.5295 37.8446C55.3983 37.6896 55.2234 37.6121 55.0048 37.6121H54.0567V39.3097Z" fill="#F7F7F7"/>
<path d="M59.8705 39.9155V34.9425H60.4608V37.1261H61.1763C61.224 36.478 61.4446 35.938 61.8382 35.506C62.2357 35.074 62.7107 34.8579 63.2633 34.8579C63.8596 34.8579 64.3604 35.1021 64.7659 35.5905C65.1753 36.0789 65.3801 36.68 65.3801 37.3938C65.3801 38.1263 65.1753 38.7438 64.7659 39.2463C64.3604 39.7488 63.8596 40 63.2633 40C62.7187 40 62.2516 39.7863 61.862 39.359C61.4725 38.927 61.2479 38.3846 61.1882 37.7319H60.4608V39.9155H59.8705ZM61.7666 37.3938C61.7666 37.9432 61.9117 38.4081 62.2019 38.7884C62.4921 39.1688 62.8459 39.359 63.2633 39.359C63.6807 39.359 64.0364 39.1688 64.3306 38.7884C64.6248 38.4081 64.7719 37.9432 64.7719 37.3938C64.7719 36.8631 64.6248 36.4146 64.3306 36.0484C64.0404 35.6821 63.6846 35.4989 63.2633 35.4989C62.8459 35.4989 62.4921 35.6821 62.2019 36.0484C61.9117 36.4146 61.7666 36.8631 61.7666 37.3938Z" fill="#F7F7F7"/>
<path d="M66.8255 39.9155V34.9425H68.3698C68.7594 34.9425 69.0754 35.0857 69.3179 35.3721C69.5643 35.6539 69.6876 36.0296 69.6876 36.4992C69.6876 36.9688 69.5643 37.3491 69.3179 37.6403C69.0714 37.9314 68.7554 38.077 68.3698 38.077H67.4158V39.9155H66.8255ZM67.4158 37.4712H68.2744C68.5248 37.4712 68.7236 37.3844 68.8707 37.2106C69.0178 37.0369 69.0913 36.7997 69.0913 36.4992C69.0913 36.2033 69.0178 35.9709 68.8707 35.8018C68.7276 35.6328 68.5308 35.5482 68.2804 35.5482H67.4158V37.4712Z" fill="#F7F7F7"/>
<path d="M71.0203 39.9155V34.9425H71.6106V38.1686L71.5749 38.8941H71.5868C71.7259 38.5842 71.8452 38.34 71.9446 38.1615L73.8109 34.9425H74.3893V39.9155H73.8049V36.6894L73.8407 35.9638H73.8288C73.6936 36.2644 73.5764 36.5062 73.477 36.6894L71.5987 39.9155H71.0203Z" fill="#F7F7F7"/>
<path d="M77.8056 34.71C77.5632 34.71 77.3545 34.6302 77.1795 34.4705C77.0086 34.3062 76.9232 34.0855 76.9232 33.8084V33.7027H77.3882V33.8014C77.3882 33.9469 77.43 34.062 77.5135 34.1465C77.5969 34.2263 77.6943 34.2663 77.8056 34.2663C77.9209 34.2663 78.0203 34.2263 78.1038 34.1465C78.1873 34.062 78.229 33.9446 78.229 33.7943V33.7027H78.6881V33.8084C78.6881 34.0855 78.6027 34.3062 78.4317 34.4705C78.2608 34.6302 78.0521 34.71 77.8056 34.71ZM76.1003 39.9155V34.9425H76.6906V38.1686L76.6548 38.8941H76.6668C76.8059 38.5842 76.9251 38.34 77.0245 38.1615L78.8909 34.9425H79.4692V39.9155H78.8849V36.6894L78.9207 35.9638H78.9087C78.7736 36.2644 78.6563 36.5062 78.5569 36.6894L76.6787 39.9155H76.1003Z" fill="#F7F7F7"/>
<defs>
<linearGradient id="paint0_linear" x1="1.11122" y1="8.05556" x2="30.2758" y2="26.427" gradientUnits="userSpaceOnUse">
<stop stop-color="#AD6734"/>
<stop offset="1" stop-color="#FF8801"/>
</linearGradient>
</defs>
</svg>
